<?xml version="1.0" encoding="utf-8"?>
<!-- Generator: Adobe Illustrator 15.1.0, SVG Export Plug-In . SVG Version: 6.00 Build 0)  -->
<!DOCTYPE svg PUBLIC "-//W3C//DTD SVG 1.1//EN" "http://www.w3.org/Graphics/SVG/1.1/DTD/svg11.dtd">
<svg version="1.1" id="Layer_1" xmlns="http://www.w3.org/2000/svg" xmlns:xlink="http://www.w3.org/1999/xlink" x="0px" y="0px"
	 width="289.375px" height="231.5px" viewBox="2 4 289.375 231.5" enable-background="new 2 4 289.375 231.5" xml:space="preserve">
<path fill="#FFFFFF" d="M247.969,32.938h-22.946l-14.469-14.469C202.175,10.09,187.466,4,175.625,4H117.75
	c-11.848,0-26.55,6.09-34.929,14.469L68.353,32.938H45.406C21.478,32.938,2,52.408,2,76.344v115.75
	C2,216.029,21.478,235.5,45.406,235.5h202.563c23.936,0,43.406-19.471,43.406-43.406V76.344
	C291.375,52.408,271.904,32.938,247.969,32.938z M146.688,177.625c-27.97,0-50.641-22.692-50.641-50.641
	c0-27.983,22.671-50.641,50.641-50.641c27.977,0,50.641,22.657,50.641,50.641C197.328,154.933,174.664,177.625,146.688,177.625z"/>
</svg>
