<?xml version="1.0" encoding="utf-8"?>
<!-- Generator: Adobe Illustrator 15.1.0, SVG Export Plug-In . SVG Version: 6.00 Build 0)  -->
<!DOCTYPE svg PUBLIC "-//W3C//DTD SVG 1.1//EN" "http://www.w3.org/Graphics/SVG/1.1/DTD/svg11.dtd">
<svg version="1.1" id="Layer_1" xmlns="http://www.w3.org/2000/svg" xmlns:xlink="http://www.w3.org/1999/xlink" x="0px" y="0px"
	 width="1600px" height="1600px" viewBox="0 0 1600 1600" enable-background="new 0 0 1600 1600" xml:space="preserve">
<title></title>
<g>
	<path fill="#FFFFFF" d="M1500,700h-110.106C1347.207,449.233,1150.767,252.793,900,210.106V100C900,44.771,855.229,0,800,0
		S700,44.771,700,100v110.106C449.233,252.793,252.793,449.233,210.106,700H100C44.771,700,0,744.771,0,800s44.771,100,100,100
		h110.106c42.687,250.767,239.127,447.207,489.894,489.894V1500c0,55.229,44.771,100,100,100s100-44.771,100-100v-110.106
		c250.767-42.687,447.207-239.127,489.894-489.894H1500c55.229,0,100-44.771,100-100S1555.229,700,1500,700z M800,1200
		c-220.914,0-400-179.086-400-400s179.086-400,400-400s400,179.086,400,400C1199.781,1020.823,1020.823,1199.781,800,1200z"/>
	<path fill="#FFFFFF" d="M800,600c-110.457,0-200,89.543-200,200s89.543,200,200,200s200-89.543,200-200
		C999.855,689.603,910.397,600.145,800,600z"/>
</g>
</svg>
