<?xml version="1.0" encoding="utf-8"?>
<!-- Generator: Adobe Illustrator 15.1.0, SVG Export Plug-In . SVG Version: 6.00 Build 0)  -->
<!DOCTYPE svg PUBLIC "-//W3C//DTD SVG 1.1//EN" "http://www.w3.org/Graphics/SVG/1.1/DTD/svg11.dtd">
<svg version="1.1" id="Layer_1" xmlns="http://www.w3.org/2000/svg" xmlns:xlink="http://www.w3.org/1999/xlink" x="0px" y="0px"
	 width="139.5px" height="174.375px" viewBox="-119.5 2 139.5 174.375" enable-background="new -119.5 2 139.5 174.375"
	 xml:space="preserve">
<path d="M20,89.188C20,79.57,12.184,71.75,2.563,71.75h-8.719V45.594C-6.156,21.558-25.714,2-49.75,2s-43.594,19.558-43.594,43.594
	V71.75h-8.719c-9.617,0-17.438,7.82-17.438,17.438v69.75c0,9.621,7.82,17.438,17.438,17.438H2.563
	c9.621,0,17.438-7.816,17.438-17.438V89.188z M-75.906,45.594c0-14.424,11.733-26.156,26.156-26.156s26.156,11.732,26.156,26.156
	V71.75h-52.313V45.594z"/>
</svg>
