<?xml version="1.0" encoding="utf-8"?>
<!-- Generator: Adobe Illustrator 15.1.0, SVG Export Plug-In . SVG Version: 6.00 Build 0)  -->
<!DOCTYPE svg PUBLIC "-//W3C//DTD SVG 1.1//EN" "http://www.w3.org/Graphics/SVG/1.1/DTD/svg11.dtd">
<svg version="1.1" xmlns="http://www.w3.org/2000/svg" xmlns:xlink="http://www.w3.org/1999/xlink" x="0px" y="0px"
	 width="456.379px" height="373px" viewBox="-155.761 -221.49 456.379 373" enable-background="new -155.761 -221.49 456.379 373"
	 xml:space="preserve">
<g id="Layer_1">
	<g id="Layer_3">
		<rect x="-155.761" y="-221.49" fill="none" width="456.379" height="373"/>
	</g>
</g>
<g id="Layer_2">
	<g>
		<g>
			<path d="M-113.263-96.729c0,2.236-1.81,4.045-4.046,4.045h-31.88c-2.228,0-4.028-1.81-4.028-4.045v-31.872
				c0-2.245,1.801-4.046,4.028-4.046h31.88c2.236,0,4.046,1.801,4.046,4.046V-96.729z"/>
			<path d="M-113.263-45.111c0,2.23-1.81,4.041-4.046,4.041h-31.88c-2.228,0-4.028-1.81-4.028-4.041v-31.885
				c0-2.219,1.801-4.033,4.028-4.033h31.88c2.236,0,4.046,1.814,4.046,4.033V-45.111z"/>
			<path d="M-113.263,6.51c0,2.227-1.81,4.037-4.046,4.037h-31.88c-2.228,0-4.028-1.81-4.028-4.037v-31.88
				c0-2.236,1.801-4.033,4.028-4.033h31.88c2.236,0,4.046,1.796,4.046,4.033V6.51z"/>
			<path d="M-113.263,58.128c0,2.227-1.81,4.032-4.046,4.032h-31.88c-2.228,0-4.028-1.805-4.028-4.032V26.256
				c0-2.245,1.801-4.055,4.028-4.055h31.88c2.236,0,4.046,1.81,4.046,4.055V58.128z"/>
			<path d="M-51.579-103.335c0-10.812-8.083-13.935-16.291-13.935c-4.17,0-5.989,0.124-7.426,0.262
				c-0.134,5.998-0.267,18.899-0.267,28.149h8.465C-58.615-88.859-51.579-92.386-51.579-103.335 M-93.157-129
				c5.475-0.656,15.9-1.446,26.316-1.446c19.166,0,33.123,7.041,33.123,27.249c0,15.909-8.997,22.678-16.823,23.996
				C-34.25-51.456-32.032-49.375-29.29-46.367c-4.294,3.917-8.083,5.607-12.254,5.607c-3.771-0.138-6.646-1.819-8.606-5.47
				l-16.166-30.119h-9.246l0.133,34.68l-17.86,0.643c0,0,0.523-32.062,0.523-48.605C-92.767-106.579-93.157-122.749-93.157-129"/>
			<path d="M-27.41-116.232c-0.532-9.769-0.141-11.21,1.03-12.382c0.932-0.918,2.369-1.299,6.778-1.299h59.706
				c0.515,9.773,0.266,11.082-1.038,12.382c-0.914,0.909-2.342,1.3-6.788,1.3l-17.072-0.128c0,24.635,0,44.067,0.267,74.687
				l-18.127,0.652c0.399-31.272,0.133-56.83,0.133-75.339L-27.41-116.232z"/>
			<path d="M98.336-124.311c1.047-4.689,2.094-5.86,14.072-5.86c3.931,0,4.703,2.462,3.399,6.77l-25.421,81.47
				c0,0-15.367,1.952-22.687,0.909L44.78-122.482c-1.561-5.87-0.266-7.688,11.588-7.688c4.959,0,5.874,1.038,6.912,5.723
				l17.071,69.226L98.336-124.311z"/>
			<path d="M-42.715-20.627c0-4.432,1.828-6.123,12.386-6.123c3.771,0,5.608,0.91,5.608,4.437c0,6.642-0.266,20.984-0.266,53.96
				c0,20.86-13.425,30.763-34.542,30.763c-20.859,0-34.284-10.169-34.284-30.9c0-30.239-0.124-46.92-0.124-52.137
				c0-4.432,1.952-6.123,12.51-6.123c3.78,0,5.599,0.91,5.599,4.437c0,6.642-0.515,41.312-0.515,51.352
				c0,13.438,4.685,20.199,16.813,20.199c12.13,0,17.081-6.761,17.081-20.199C-42.449,18.48-42.715-15.411-42.715-20.627"/>
			<path d="M-16.594,10.015c-1.046-7.688-1.046-9.65,0.391-11.096c1.039-1.034,2.476-1.291,8.731-1.034l1.18-10.168
				c0.515-4.561,6.638-6.131,9.751-6.131c3.665,0,5.493,1.051,5.493,4.042v12.511l14.862-0.381c0.914,7.431,0.648,10.03-0.79,11.339
				c-1.047,1.171-4.17,1.034-14.188,0.644L8.703,42.214c0,7.023,2.591,8.594,8.075,8.594c1.801,0,4.951-0.781,6.122-1.051
				c1.563,6.384,0.915,8.087-0.523,9.658c-1.57,1.424-5.475,2.999-14.081,2.999c-9.512,0-16.299-3.917-16.175-15.257L-7.605,9.74
				L-16.594,10.015z"/>
			<path d="M48.977,19.265v42.488l-16.938,0.652c0.266-18.114,0.266-31.29,0.266-41.068c0-5.204-0.391-13.282-0.391-17.714
				c0-3.909,3.78-5.861,12.502-5.861c3.132,0,4.17,1.69,4.17,3.908c0,2.205-0.257,4.569-0.648,7.431l0.391,0.253
				c4.951-7.822,11.34-11.592,15.9-11.592c2.209,0,3.656,0.381,4.685,1.291c1.18,1.318,1.836,2.742,0.923,12.253
				C62.02,10.654,56.004,13.253,48.977,19.265"/>
			<path d="M114.875,24.207c0.39-10.292-4.322-14.591-10.683-14.591c-7.835,0-13.185,6.397-13.824,14.857L114.875,24.207z
				 M131.041,26.425c0,4.832-2.227,6.651-7.178,6.651c-8.873,0-27.638,0-33.636-0.138c-0.523,13.047,5.741,17.208,17.346,17.208
				c8.598,0,16.423-1.952,19.414-2.862c2.085,6.779,1.695,8.088,0.275,9.512c-2.617,2.617-10.7,5.616-22.83,5.616
				c-18.366,0-31.658-9.006-31.658-30.248c0-22.94,12.635-34.408,31.419-34.408C121.255-2.243,131.041,5.707,131.041,26.425"/>
			<path d="M170.117,50.546c5.723,0,9.626-1.163,11.854-1.961c2.21,6.26,1.962,7.702,0.133,9.392
				c-1.961,1.952-7.426,4.689-17.479,4.689c-15.368,0-26.85-9.259-26.85-31.671c0-24.76,12.777-33.237,27.896-33.237
				c8.225,0,13.939,2.732,16.167,4.942c1.562,1.446,1.961,2.755-0.781,9.13c-2.085-0.514-5.866-1.699-10.825-1.699
				c-9.246,0-15.11,5.617-15.11,20.736C155.255,45.724,160.987,50.546,170.117,50.546"/>
			<path d="M232.165,23.302c0-9.13-2.485-12.386-8.492-12.386c-5.474,0-10.807,3.917-15.367,8.349v42.488l-16.3,0.661
				c0,0,0.515-29.072,0.515-44.191c0-12.391-0.382-36.116-0.382-45.229c0-4.042,3.248-6.006,11.845-6.006
				c4.047,0,5.218,1.575,5.218,4.308c0,5.088-0.514,26.596-0.896,34.417l-1.048,2.99l0.382,0.261
				c5.732-5.869,13.034-11.201,22.821-11.201c12.377,0,18.633,7.293,18.633,22.679c0,30.753-0.524,34.923,0.532,41.312
				c-1.58,0.399-6.921,0.528-10.177,0.528c-5.092,0-7.568-3.137-7.568-7.307C231.881,50.022,232.165,36.983,232.165,23.302"/>
			<path d="M256.032,10.015c-1.047-7.688-1.047-9.65,0.399-11.096c1.03-1.034,2.458-1.291,8.731-1.034l1.171-10.168
				c0.515-4.561,6.637-6.131,9.779-6.131c3.646,0,5.465,1.051,5.465,4.042v12.511l14.852-0.381
				c0.916,7.431,0.657,10.03-0.779,11.339c-1.038,1.171-4.171,1.034-14.206,0.644l-0.132,32.474c0,7.023,2.617,8.594,8.083,8.594
				c1.836,0,4.96-0.781,6.13-1.051c1.562,6.384,0.904,8.087-0.523,9.658c-1.57,1.424-5.483,2.999-14.081,2.999
				c-9.512,0-16.291-3.917-16.157-15.257l0.258-37.417L256.032,10.015z"/>
		</g>
	</g>
</g>
</svg>
