<?xml version="1.0" encoding="utf-8"?>
<!-- Generator: Adobe Illustrator 15.1.0, SVG Export Plug-In . SVG Version: 6.00 Build 0)  -->
<!DOCTYPE svg PUBLIC "-//W3C//DTD SVG 1.1//EN" "http://www.w3.org/Graphics/SVG/1.1/DTD/svg11.dtd">
<svg version="1.1" id="Layer_1" xmlns="http://www.w3.org/2000/svg" xmlns:xlink="http://www.w3.org/1999/xlink" x="0px" y="0px"
	 width="534px" height="373px" viewBox="941.476 -218.714 534 373" enable-background="new 941.476 -218.714 534 373"
	 xml:space="preserve">
<g id="Layer_2">
	<g>
		<path d="M1138.604-30.357c-1.011,0.458-1.605,1.449-1.865,2.669l-1.408,0.605c-0.221-1.071-0.938-1.306-1.789-0.917
			c-0.787,0.355-1.241,1.043-1.135,1.607c0.325,1.738,3.021,0.989,3.405,3.556c1.077-3.725,4.452-5.246,4.118-7.032
			c-0.071-0.401-0.355-0.626-0.747-0.626C1139.007-30.495,1138.811-30.455,1138.604-30.357 M1120.62-25.378
			c0,7.766,6.302,14.068,14.069,14.068c7.773,0,14.065-6.302,14.065-14.068c0-0.682-0.06-1.349-0.16-2.002
			c-2.008,4.54-6.132,8.95-11.238,11.264c-7.066,3.224-12.104-0.11-13.098-5.375c-0.872-4.604,2.183-9.778,6.803-11.882
			c3.878-1.758,6.257-0.651,6.515,1.867c0.381-0.895,1.39-1.836,2.393-2.295c2.617-1.192,4.041-0.182,4.36,1.481
			c0.694,3.666-5.218,6.182-6.914,12.234l-2.272,0.814c-0.186-5.003-5.09-2.937-5.765-6.489c-0.274-1.459,0.825-3.43,3.227-4.525
			c1.19-0.539,2.051-0.562,2.739-0.139c-0.365-1.381-1.602-1.906-3.707-0.952c-3.152,1.436-5.217,4.952-4.468,8.904
			c0.797,4.231,4.538,6.601,9.564,4.304c5.65-2.562,10.12-8.904,10.143-14.219c-2.433-4.216-6.97-7.057-12.187-7.057
			C1126.922-39.446,1120.62-33.144,1120.62-25.378 M1042.387-45.714v19.535c0,5.914-3.561,11.264-7.941,11.264
			c-2.84,0-3.729-1.945-3.729-5.189v-25.61h-12.391v28.442c0,6.972,2.997,12.732,11.989,12.732c6.396,0,10.858-3.083,13.288-7.213
			h0.158c-0.401,1.941-0.481,4.855-0.481,6.319h11.513v-40.28H1042.387z M1345.358-24.314c0,12.963,6.238,19.691,18.479,19.691
			c3.892,0,7.775-0.645,10.532-1.7l-0.979-10.463c-1.941,0.977-4.451,1.464-6.806,1.464c-5.592,0-8.35-3.812-8.35-9.97
			c0-6.639,2.845-10.698,8.518-10.698c2.187,0,4.285,0.489,6.316,1.139l1.303-10.695c-2.519-0.652-5.188-1.055-7.782-1.055
			C1351.843-46.6,1345.358-36.469,1345.358-24.314 M1314.244-37.689c3.56,0,5.83,2.431,5.67,6.969h-12.152
			C1308.081-34.85,1310.681-37.689,1314.244-37.689 M1295.199-25.128c0,14.181,7.295,20.588,20.504,20.588
			c4.941,0,10.368-0.896,14.905-2.757l-1.134-9.328c-3.726,1.71-7.861,2.522-11.828,2.522c-6.646,0-9.884-3.086-9.966-8.429h23.988
			c0.245-1.944,0.398-3.727,0.398-5.433c0-10.533-5.345-18.719-17.499-18.719C1302.089-46.683,1295.199-37.526,1295.199-25.128
			 M1271.96-38.583h-0.168c0.41-2.506,0.573-5.424,0.573-7.131h-11.512v40.28h12.317v-16.611c0-10.05,3.57-13.944,10.287-12.401
			l0.571-12.237c-0.309-0.023-0.601-0.032-0.896-0.032C1277.498-46.712,1273.965-43.122,1271.96-38.583 M1191.976-60.134v33.956
			c0,8.184-2.753,11.181-9.884,11.181c-7.777,0-9.808-4.051-9.808-10.454v-34.683h-12.634v35.412
			c0,10.938,4.207,20.345,21.632,20.345c14.501,0,23.175-7.131,23.175-22.531v-33.226H1191.976z M1224.143-57.624v11.91h-6.076
			v9.485h6.076v18.718c0,9.889,3.001,12.971,12.315,12.971c2.925,0,6.081-0.489,8.753-1.138v-9.804
			c-1.299,0.324-3.077,0.644-4.532,0.644c-3.085,0-4.137-1.375-4.137-5.512v-15.88h8.669v-9.484h-8.753v-15.229L1224.143-57.624z
			 M1445.496-57.624v11.91h-6.068v9.485h6.068v18.718c0,9.889,3.001,12.971,12.318,12.971c2.918,0,6.082-0.489,8.75-1.138v-9.804
			c-1.297,0.324-3.077,0.644-4.537,0.644c-3.08,0-4.127-1.375-4.127-5.512v-15.88h8.667v-9.484h-8.748v-15.229L1445.496-57.624z
			 M964.27-33.147c0-11.431,6.246-16.537,12.808-16.537c8.346,0,12.802,5.836,12.802,16.855c0,12.397-7.049,16.856-13.042,16.856
			C968.159-15.969,964.27-22.619,964.27-33.147 M950.901-32.094c0,17.18,8.262,27.717,25.197,27.717
			c15.156,0,27.144-11.27,27.144-29.26c0-19.206-10.768-27.552-25.198-27.552C963.136-61.19,950.901-49.922,950.901-32.094
			 M1083.068-24.643c0-8.995,3.65-12.071,8.429-12.071c1.458,0,2.839,0.162,4.217,0.486v9.885c0,6.724-2.921,11.59-7.055,11.59
			C1084.852-14.755,1083.068-17.914,1083.068-24.643 M1095.713-64.592v18.314c-1.307-0.162-2.675-0.246-4.053-0.246
			c-13.777,0-21.635,9.971-21.635,23.174c0,11.509,4.936,18.889,14.662,18.889c5.996,0,10.051-2.84,12.234-6.727h0.165
			c-0.324,2.021-0.408,4.05-0.408,5.752h11.35v-59.157L1095.713-64.592L1095.713-64.592z M1389.681-64.592v59.157h12.32V-24.89
			c0-5.992,3.646-11.338,8.021-11.338c2.83,0,3.729,1.943,3.729,5.186v25.608h12.315v-28.445c0-6.965-2.916-12.719-11.91-12.719
			c-5.999,0-10.376,2.593-12.727,6.399h-0.077c0.487-2.514,0.646-5.914,0.646-8.262V-64.59h-12.318V-64.592z"/>
	</g>
</g>
<g id="Layer_3">
	<rect x="941.476" y="-218.714" fill="none" width="534" height="373"/>
</g>
</svg>
